<svg height="511pt" viewBox="-8 0 511 511.89738" width="511pt" xmlns="http://www.w3.org/2000/svg"><path d="m373.855469 279.027344 19.597656 168.957031 3.882813 33.546875c-1.285157 1.0625-2.640626 2.035156-4.058594 2.914062-24.542969 16.242188-80.507813 27.453126-145.65625 27.453126-65.148438 0-121.113282-11.210938-145.65625-27.453126-1.417969-.878906-2.773438-1.851562-4.058594-2.914062l3.882812-33.546875 19.597657-168.957031zm0 0" fill="#2c3e50"/><path d="m359.261719 279.027344 17.339843 168.957031 3.433594 33.546875c-1.128906 1.054688-2.328125 2.027344-3.59375 2.914062-21.707031 16.242188-71.203125 27.453126-128.820312 27.453126-57.617188 0-107.113282-11.210938-128.820313-27.453126-1.265625-.886718-2.464843-1.859374-3.59375-2.914062l3.433594-33.546875 17.339844-168.957031zm0 0" fill="#3f5c6c"/><path d="m382.859375 356.445312c-44.382813 9.921876-89.761719 14.6875-135.238281 14.210938-45.476563.476562-90.855469-4.289062-135.238282-14.210938l9.003907-77.417968h252.46875zm0 0" fill="#ff5364"/><path d="m135.953125 279.027344-8.300781 80.769531c-5.292969-.96875-10.328125-2.117187-15.269532-3.351563l9.003907-77.417968zm0 0" fill="#c03a2b"/><path d="m382.859375 356.445312c-4.941406 1.234376-9.976563 2.382813-15.269531 3.351563l-8.300782-80.769531h14.566407zm0 0" fill="#c03a2b"/><g fill="#3b97d3"><path d="m44.585938 35.207031c-4.875 0-8.828126-3.953125-8.828126-8.828125v-8.828125c0-4.875 3.953126-8.824219 8.828126-8.824219s8.828124 3.949219 8.828124 8.824219v8.828125c0 4.875-3.953124 8.828125-8.828124 8.828125zm0 0"/><path d="m44.585938 97c-4.875 0-8.828126-3.953125-8.828126-8.828125v-8.828125c0-4.875 3.953126-8.824219 8.828126-8.824219s8.828124 3.949219 8.828124 8.824219v8.828125c0 4.875-3.953124 8.828125-8.828124 8.828125zm0 0"/><path d="m18.105469 61.691406h-8.828125c-4.875 0-8.828125-3.953125-8.828125-8.828125s3.953125-8.828125 8.828125-8.828125h8.828125c4.875 0 8.824219 3.953125 8.824219 8.828125s-3.949219 8.828125-8.824219 8.828125zm0 0"/><path d="m79.898438 61.691406h-8.828126c-4.875 0-8.828124-3.953125-8.828124-8.828125s3.953124-8.828125 8.828124-8.828125h8.828126c4.875 0 8.824218 3.953125 8.824218 8.828125s-3.949218 8.828125-8.824218 8.828125zm0 0"/></g><path d="m459.484375 88.171875c-19.503906 0-35.3125-15.808594-35.3125-35.308594s15.808594-35.3125 35.3125-35.3125c19.5 0 35.308594 15.8125 35.308594 35.3125 0 9.363281-3.71875 18.347657-10.339844 24.96875-6.625 6.621094-15.605469 10.339844-24.96875 10.339844zm0-52.964844c-9.75 0-17.65625 7.90625-17.65625 17.65625s7.90625 17.65625 17.65625 17.65625 17.652344-7.90625 17.652344-17.65625c0-4.683593-1.859375-9.171875-5.167969-12.484375-3.3125-3.3125-7.804688-5.171875-12.484375-5.171875zm0 0" fill="#ff5364"/><path d="m35.757812 370.65625c-4.875 0-8.828124-3.953125-8.828124-8.828125v-8.828125c0-4.875 3.953124-8.828125 8.828124-8.828125s8.828126 3.953125 8.828126 8.828125v8.828125c0 4.875-3.953126 8.828125-8.828126 8.828125zm0 0" fill="#894b9d"/><path d="m35.757812 414.792969c-4.875 0-8.828124-3.953125-8.828124-8.828125v-8.824219c0-4.878906 3.953124-8.828125 8.828124-8.828125s8.828126 3.949219 8.828126 8.828125v8.824219c0 4.875-3.953126 8.828125-8.828126 8.828125zm0 0" fill="#894b9d"/><path d="m18.105469 388.3125h-8.828125c-4.875 0-8.828125-3.953125-8.828125-8.828125s3.953125-8.828125 8.828125-8.828125h8.828125c4.875 0 8.824219 3.953125 8.824219 8.828125s-3.949219 8.828125-8.824219 8.828125zm0 0" fill="#894b9d"/><path d="m62.242188 388.3125h-8.828126c-4.875 0-8.828124-3.953125-8.828124-8.828125s3.953124-8.828125 8.828124-8.828125h8.828126c4.875 0 8.828124 3.953125 8.828124 8.828125s-3.953124 8.828125-8.828124 8.828125zm0 0" fill="#894b9d"/><path d="m151.753906 174.332031c-68.855468 10.148438-115.996094 30.984375-115.996094 55.082031 0 20.390626 33.722657 38.402344 85.628907 49.613282 41.539062 8.441406 83.847656 12.523437 126.234375 12.179687 42.386718.34375 84.695312-3.738281 126.234375-12.179687 51.90625-11.210938 85.628906-29.222656 85.628906-49.613282 0-24.097656-47.140625-44.933593-115.90625-55.082031" fill="#547580"/><path d="m335.191406 209.550781c27.542969 4.855469 44.84375 11.917969 44.84375 19.863281 0 14.65625-59.320312 26.484376-132.414062 26.484376s-132.414063-11.828126-132.414063-26.484376c0-7.945312 17.300781-15.007812 44.84375-19.863281zm0 0" fill="#2c2f38"/><path d="m244.355469 231.621094c-21.296875-.019532-42.574219-1.226563-63.734375-3.617188l-3.003906-1.238281-7.0625-2.914063-7.855469-3.265624-2.648438-11.035157-5.472656-23.214843-2.824219-12.003907-25.601562-108.140625c-3.660156-13.855468-1.585938-28.601562 5.753906-40.910156 7.34375-12.308594 19.332031-21.140625 33.265625-24.5 20.058594-3.648438 40.242187 5.71875 50.40625 23.390625 4.195313 7.027344 6.785156 14.894531 7.589844 23.042969l12.535156 120.496094 2.382813 17.566406zm0 0" fill="#b0d3f0"/><path d="m244.355469 231.621094c-21.296875-.019532-42.574219-1.226563-63.734375-3.617188l-3.003906-1.238281-8.207032-34.78125-1.589844-6.707031-24.011718-101.429688c-3.660156-13.855468-1.589844-28.601562 5.753906-40.910156 7.339844-12.308594 19.332031-21.140625 33.265625-24.503906 11.25-2.222656 22.925781-.175782 32.75 5.738281 4.195313 7.027344 6.785156 14.894531 7.589844 23.042969l12.535156 120.496094 2.382813 17.566406zm0 0" fill="#ecf0f1"/><path d="m369.089844 66.191406-25.601563 108.140625-2.824219 12.003907-5.472656 23.214843-2.648437 11.035157-7.855469 3.265624-7.0625 2.914063-3.003906 1.238281c-21.160156 2.390625-42.4375 3.597656-63.734375 3.617188l6.269531-46.34375 2.382812-17.566406 12.535157-120.496094c.804687-8.148438 3.394531-16.015625 7.589843-23.042969 10.164063-17.671875 30.347657-27.039063 50.40625-23.390625 13.933594 3.359375 25.921876 12.191406 33.265626 24.5 7.339843 12.308594 9.414062 27.054688 5.753906 40.910156zm0 0" fill="#b0d3f0"/><path d="m351.433594 83.847656-24.011719 101.429688-1.589844 6.707031-8.207031 34.78125-3.003906 1.238281c-21.160156 2.390625-42.4375 3.597656-63.734375 3.617188l6.269531-46.34375 2.382812-17.566406 12.535157-120.496094c.804687-8.148438 3.394531-16.015625 7.589843-23.042969 9.824219-5.914063 21.5-7.960937 32.75-5.738281 13.933594 3.363281 25.925782 12.195312 33.265626 24.503906 7.34375 12.308594 9.414062 27.054688 5.753906 40.910156zm0 0" fill="#ecf0f1"/></svg>