<?xml version="1.0" standalone="no"?>
<!DOCTYPE svg PUBLIC "-//W3C//DTD SVG 20010904//EN"
 "http://www.w3.org/TR/2001/REC-SVG-20010904/DTD/svg10.dtd">
<svg version="1.0" xmlns="http://www.w3.org/2000/svg"
 width="512.000000pt" height="512.000000pt" viewBox="0 0 512.000000 512.000000"
 preserveAspectRatio="xMidYMid meet">
<metadata>
Created by potrace 1.11, written by Peter Selinger 2001-2013
</metadata>
<g transform="translate(0.000000,512.000000) scale(0.100000,-0.100000)"
fill="#000000" stroke="none">
<path d="M1608 4701 c-179 -46 -337 -172 -416 -331 -75 -153 -71 -100 -72
-1184 0 -927 -1 -969 -19 -995 -47 -67 -136 -285 -170 -416 -48 -187 -62 -465
-31 -607 43 -195 121 -340 259 -479 145 -145 292 -226 491 -270 80 -17 135
-18 935 -16 846 2 850 3 929 25 102 28 203 74 291 131 67 43 212 179 248 231
78 115 128 221 160 343 17 67 21 110 21 232 0 166 -6 229 -34 355 -34 152 -95
315 -164 441 l-36 65 0 970 c-1 601 -4 986 -11 1014 -48 218 -203 395 -419
476 -68 25 -87 28 -205 28 -117 1 -138 -2 -208 -27 -234 -82 -384 -262 -436
-524 -1 -2 -1 -256 -1 -565 l0 -563 -160 0 -160 0 -1 550 c0 303 -2 565 -5
584 -8 63 -25 115 -65 198 -70 146 -210 266 -379 324 -87 30 -247 34 -342 10z"/>
</g>
</svg>
